<svg xmlns="http://www.w3.org/2000/svg" width="126" height="24" fill="#fff" xmlns:v="https://vecta.io/nano"><path d="M3.052 23.714L4.8 18.7h7.444l1.74 5.002h3.052l-6.856-18.9H6.858L0 23.714h3.052zm2.587-7.402l2.8-8.067h.15l2.8 8.067H5.64zm13.927 7.402h2.782v-8.657c0-1.855 1.442-3.193 3.415-3.193.577 0 1.228.102 1.452.166V9.4c-.28-.037-.828-.065-1.182-.065-1.675 0-3.108.94-3.63 2.464h-.15V9.537h-2.7v14.177zM35.13 24c4.03 0 6.662-2.926 6.662-7.3 0-4.412-2.633-7.338-6.662-7.338s-6.662 2.926-6.662 7.338c0 4.384 2.633 7.3 6.662 7.3zm.01-2.317c-2.633 0-3.862-2.28-3.862-5.002 0-2.714 1.228-5.02 3.862-5.02 2.615 0 3.843 2.307 3.843 5.02 0 2.723-1.228 5.002-3.843 5.002zm18.8-3.848c.01 2.4-1.796 3.553-3.36 3.553-1.72 0-2.912-1.237-2.912-3.166V9.537h-2.782v9.017c0 3.517 1.945 5.344 4.7 5.344 2.15 0 3.6-1.126 4.27-2.64h.15v2.455h2.736V9.537h-2.8v8.297zm9.313-2.538c0-2.26 1.396-3.553 3.33-3.553 1.9 0 3.033 1.227 3.033 3.286v8.685H72.4v-9.017c0-3.507-1.945-5.344-4.866-5.344-2.15 0-3.554.988-4.215 2.492h-.177v-2.31h-2.67v14.177h2.782v-8.417zM81.5 24c2.605 0 3.63-1.578 4.13-2.483h.233v2.206h2.717v-18.9H85.8v7.024h-.168c-.502-.877-1.45-2.483-4.113-2.483-3.452 0-5.992 2.704-5.992 7.3 0 4.587 2.503 7.338 5.974 7.338zm.614-2.354c-2.484 0-3.778-2.17-3.778-5.012 0-2.815 1.265-4.93 3.778-4.93 2.43 0 3.73 1.966 3.73 4.93 0 2.98-1.33 5.012-3.73 5.012zM92.206.763h1.997v5.624h.77V.763h1.998V.086h-4.764v.677zm6.594 2.78c0-.825.53-1.292 1.253-1.292.688 0 1.104.43 1.104 1.18v2.953h.732v-3c0-1.215-.65-1.784-1.625-1.784-.75 0-1.18.3-1.402.8H98.8V.086h-.732v6.3h.732V3.544zm6.416 2.94c.967 0 1.674-.48 1.898-1.194l-.707-.197c-.187.492-.618.738-1.2.738-.86 0-1.452-.55-1.486-1.563h3.458V3.96c0-1.76-1.054-2.363-2.047-2.363-1.3 0-2.146 1-2.146 2.46s.843 2.424 2.22 2.424zm-1.486-2.843c.05-.735.574-1.4 1.4-1.4.794 0 1.303.6 1.303 1.4h-2.714zM115.026.086v4.1c0 .923-.64 1.587-1.7 1.587s-1.7-.665-1.7-1.587v-4.1h-.77v4.172c0 1.292.974 2.24 2.47 2.24s2.47-.948 2.47-2.24V.086h-.77zm2.44 6.35a.56.56 0 0 0 .558-.554c0-.304-.25-.554-.558-.554a.56.56 0 0 0-.559.554.56.56 0 0 0 .559.554zm5.445-4.776h.744C123.622.7 122.738 0 121.5 0c-1.216 0-2.17.7-2.17 1.76 0 .85.62 1.354 1.612 1.637l.782.222c.67.185 1.265.418 1.265 1.046 0 .7-.67 1.144-1.55 1.144-.757 0-1.427-.332-1.5-1.046h-.794c.074 1.034.918 1.735 2.283 1.735 1.464 0 2.295-.8 2.295-1.82 0-1.18-1.13-1.563-1.787-1.735l-.645-.172c-.47-.123-1.228-.37-1.228-1.046 0-.603.558-1.046 1.402-1.046.77 0 1.352.363 1.427.984zm2.53 4.776a.56.56 0 0 0 .558-.554c0-.304-.25-.554-.558-.554a.56.56 0 0 0-.559.554.56.56 0 0 0 .559.554z"/></svg>