<svg xmlns="http://www.w3.org/2000/svg" width="21" height="19" fill="none" xmlns:v="https://vecta.io/nano"><path d="M19.16 9.338c2.14-2.14 2.14-5.615 0-7.733a5.49 5.49 0 0 0-7.755 0l-1.038 1.06L9.33 1.626c-2.14-2.16-5.615-2.16-7.734-.02C.557 2.643.006 4.02.006 5.482a5.52 5.52 0 0 0 1.589 3.877l8.772 8.77 8.793-8.793zM1.362 5.482A3.97 3.97 0 0 1 2.57 2.601c.805-.805 1.843-1.208 2.882-1.208s2.076.403 2.882 1.208l2.034 2.013L12.4 2.58C14 1 16.596 1 18.164 2.58c.763.763 1.208 1.78 1.208 2.88a3.97 3.97 0 0 1-1.208 2.881l-7.797 7.818L2.57 8.364c-.763-.784-1.208-1.8-1.208-2.88z" fill="#000"/></svg>